<svg width="60" height="60" viewBox="0 0 60 60" fill="none" xmlns="http://www.w3.org/2000/svg">
<path d="M3.8147e-07 41.9153L4.9 1.31531C5 0.615314 5.5 0.115314 6.2 0.0153145C6.9 -0.0846855 7.6 0.315315 7.8 0.915315L21.2 34.2153L3.8147e-07 41.9153ZM6.6 3.11531L2.2 39.0153L18.7 33.0153L6.6 3.11531Z" transform="translate(14.1 5.38469)" fill="white"/>
<path d="M54.6 1.3L54.5 -7.62939e-07L41.6 4.7L43.4 6.1L52.7 2.7C52.7 18.2 40.1 30.7 24.6 30.7C16.2 30.7 8.5 27.1 3.1 20.7L9.8 18.3L10.1 16.1L9.53674e-08 19.9L0.8 20.9C6.5 28.4 15.2 32.7 24.6 32.7C41.1 32.7 54.6 19.2 54.6 2.7C54.6 2.2 54.6 1.8 54.6 1.3Z" transform="translate(5.39999 27.3)" fill="white"/>
<path d="M2.8 1.9L2.1 7.62939e-07L-7.62939e-07 0.8L0.7 2.6L2.8 1.9Z" transform="translate(33.3 36.2)" fill="white"/>
<path d="M7.27664 22L0.0766403 2.1C-0.12336 1.5 0.0766403 0.699999 0.57664 0.299999C1.17664 -0.100001 1.87664 -0.100001 2.37664 0.299999L22.5766 16.3L7.27664 22ZM2.27664 2.8L8.37664 19.5L18.6766 15.8L2.27664 2.8Z" transform="translate(28.3234 17.5)" fill="white"/>
<path d="M4.1 14.8C3.5 14.8 3 14.7 2.4 14.4C1.4 14 0.7 13.2 0.3 12.2L3.8147e-07 11.3L31.1 1.52588e-06L31.4 0.899999C31.8 1.9 31.7 3 31.3 3.9C30.9 4.9 30.1 5.6 29.1 6L5.5 14.6C5 14.8 4.6 14.8 4.1 14.8ZM28.5 4.2C29 4 29.4 3.6 29.6 3.1C29.7 2.9 29.7 2.7 29.8 2.5L2.8 12.3C2.9 12.4 3.1 12.5 3.3 12.6C3.8 12.8 4.3 12.9 4.8 12.7" transform="translate(19.6 38.4)" fill="white"/>
<path d="M1.9 30C1.9 14.5 14.5 1.9 30 1.9C44.8 1.9 57 13.3 58 28L47 32L48.8 33.4L60 29.3V28.6C59.2 12.6 46.1 0 30 0C13.5 0 0 13.5 0 30C0 36.6 2.1 42.9 6.2 48.2L6.6 48.8L15.2 45.7L15.5 43.5L7.3 46.5C3.8 41.7 1.9 36 1.9 30Z" fill="white"/>
<path d="M2.1 7.62939e-07L-7.62939e-07 0.8L0.7 2.6L2.8 1.9L2.1 7.62939e-07Z" transform="translate(33.3 36.2)" fill="white"/>
</svg>
